# xmcd
#
# Track frame offsets:
#  150
#  24790
#  54377
#  100102
#  149505
#  205955
#  230960
#
# Disc length: 3754 seconds
#
# Revision: 0
# Processed by: cddbd v1.5.1PL2 Copyright (c) Steve Scherf et al.
# Submitted via: Collectorz.com_Music_Collector 6.9
#
DISCID=5d0ea807
DTITLE=Corky Siegel's Chamber Blues - Corky Siegel's Traveling Chamber Blues Show
DYEAR=2005
DGENRE=Blues
TTITLE0=Opus 17.2
TTITLE1=5 Planets In Harmonica Convergence
TTITLE2=Manhattan Island
TTITLE3=Serenade
TTITLE4=The Woofy Girl Stroll
TTITLE5=Train
TTITLE6=Opus 4 (1/2 Of Opus 8)
EXTD=
EXTT0=
EXTT1=
EXTT2=
EXTT3=
EXTT4=
EXTT5=
EXTT6=
PLAYORDER=
